<svg width="40" height="40" viewBox="0 0 40 40" fill="none" xmlns="http://www.w3.org/2000/svg">
<path d="M20 9C18.9917 9 18.1667 9.825 18.1667 10.8333C18.1667 11.8417 18.9917 12.6667 20 12.6667C21.0083 12.6667 21.8333 11.8417 21.8333 10.8333C21.8333 9.825 21.0083 9 20 9ZM20 27.3333C18.9917 27.3333 18.1667 28.1583 18.1667 29.1667C18.1667 30.175 18.9917 31 20 31C21.0083 31 21.8333 30.175 21.8333 29.1667C21.8333 28.1583 21.0083 27.3333 20 27.3333ZM20 18.1667C18.9917 18.1667 18.1667 18.9917 18.1667 20C18.1667 21.0083 18.9917 21.8333 20 21.8333C21.0083 21.8333 21.8333 21.0083 21.8333 20C21.8333 18.9917 21.0083 18.1667 20 18.1667Z" fill="#FAD074"/>
</svg>
