<svg width="25" height="24" viewBox="0 0 25 24" fill="none" xmlns="http://www.w3.org/2000/svg">
<g clip-path="url(#clip0_363_818)">
<path fill-rule="evenodd" clip-rule="evenodd" d="M1.96436 9.42871C1.96436 16.056 5.25007 21.4287 11.8215 21.4287C18.3929 21.4287 21.6786 16.056 21.6786 9.42871H1.96436Z" fill="#FFF0E1" stroke="#FFF0E1" stroke-width="4" stroke-linecap="round" stroke-linejoin="round"/>
<circle cx="16.1072" cy="16.7144" r="6.78571" fill="#272726" stroke="#FFF0E1"/>
<path d="M19.995 17.7554H16.9337V20.8166C16.9337 20.979 16.8692 21.1347 16.7544 21.2495C16.6396 21.3643 16.4839 21.4289 16.3215 21.4289C16.1591 21.4289 16.0034 21.3643 15.8886 21.2495C15.7738 21.1347 15.7093 20.979 15.7093 20.8166V17.7554H12.648C12.4856 17.7554 12.3299 17.6909 12.2151 17.5761C12.1003 17.4612 12.0358 17.3055 12.0358 17.1431C12.0358 16.9808 12.1003 16.825 12.2151 16.7102C12.3299 16.5954 12.4856 16.5309 12.648 16.5309H15.7093V13.4697C15.7093 13.3073 15.7738 13.1516 15.8886 13.0367C16.0034 12.9219 16.1591 12.8574 16.3215 12.8574C16.4839 12.8574 16.6396 12.9219 16.7544 13.0367C16.8692 13.1516 16.9337 13.3073 16.9337 13.4697V16.5309H19.995C20.1573 16.5309 20.3131 16.5954 20.4279 16.7102C20.5427 16.825 20.6072 16.9808 20.6072 17.1431C20.6072 17.3055 20.5427 17.4612 20.4279 17.5761C20.3131 17.6909 20.1573 17.7554 19.995 17.7554Z" fill="#FFF0E1"/>
<path d="M11.3929 6.00007V1.71436M16.5358 6.00007V3.85721M6.25007 6.00007V3.85721" stroke="#FFF0E1" stroke-width="1.6" stroke-linecap="round" stroke-linejoin="round"/>
</g>
<defs>
<clipPath id="clip0_363_818">
<rect width="24" height="24" fill="white" transform="translate(0.25)"/>
</clipPath>
</defs>
</svg>
